<?xml version="1.0" encoding="utf-8"?>
<!-- Generator: Adobe Illustrator 23.0.1, SVG Export Plug-In . SVG Version: 6.00 Build 0)  -->
<svg version="1.1" id="logo" xmlns="http://www.w3.org/2000/svg" xmlns:xlink="http://www.w3.org/1999/xlink" x="0px" y="0px"
	 viewBox="0 0 2435.69 1353.16" style="enable-background:new 0 0 2435.69 1353.16;" xml:space="preserve">
<style type="text/css">
	.st0{fill:#FFD836;}
</style>
<g id="logo">
	<g>
		<g>
			<path class="st0" d="M391.49,865.83c-18.25,10.67-36.86,16-55.81,16c-18.96,0-36.92-3.55-53.86-10.66
				c-16.95-7.11-33.54-19.5-49.77-37.15c-16.24-17.66-29.57-39.16-39.99-64.52l-9.6-23.46h-76.08l-14.22,33.06
				c-1.19,3.08-1.78,5.57-1.78,7.47c0,1.9,0.41,3.97,1.24,6.22c0.83,2.26,2.6,4.27,5.33,6.04c2.72,1.78,5.63,2.67,8.71,2.67h3.2
				v3.56H29.59v-3.56h3.2c5.45,0,10.84-1.6,16.18-4.8c5.33-3.2,9.78-8,13.33-14.4l72.52-159.26c-7.11-19.67-12.98-32.88-17.6-39.64
				c-4.62-6.75-8.48-11.91-11.55-15.46c-5.69-6.63-12.8-11.49-21.33-14.58c-3.32-1.18-7.23-1.78-11.73-1.78
				c-4.5,0-9.6,1.07-15.29,3.2l-0.71-3.56c18.96-11.14,37.09-16.71,54.39-16.71c25.6,0,48.7,12.56,69.32,37.68
				c10.43,13.04,19.79,28.8,28.08,47.28l56.88,130.47c10.43,23.94,18.13,39.99,23.11,48.17c4.98,8.18,9.42,15.16,13.33,20.97
				c3.91,5.8,7.76,10.84,11.55,15.11c3.79,4.27,7.94,8.41,12.44,12.44c7.82,7.11,17.65,12.44,29.51,16
				c4.98,1.65,10.49,2.49,16.53,2.49c6.04,0,12.38-0.95,19.02-2.84L391.49,865.83z M114.2,728.25h61.15l-22.4-55.1
				c-1.9-4.27-4.15-10.31-6.75-18.13L114.2,728.25z"/>
			<path class="st0" d="M451.92,805.04H317.19v-3.56h4.62c6.16,0,11.43-2.19,15.82-6.58c4.38-4.38,6.69-9.65,6.93-15.82V576.1
				c-24.88,2.61-43.73,9.6-56.52,20.97c-10.9,9.72-19.67,22.16-26.31,37.33l-3.56-1.42c4.74-25.6,17.01-44.79,36.79-57.59
				s44.62-19.2,74.48-19.2h82.48c44.55,0,79.33,10.96,104.34,32.88c25,21.92,37.51,52.44,37.51,91.54
				c0,39.1-12.56,69.62-37.68,91.54C530.96,794.08,496.24,805.04,451.92,805.04z M417.44,787.27h27.37
				c22.04,0,39.34-9.42,51.9-28.26c12.56-18.84,18.84-44.97,18.84-78.39c0-33.42-6.28-59.55-18.84-78.39
				c-12.56-18.84-29.86-28.26-51.9-28.26l-27.37,0.71V787.27z"/>
			<path class="st0" d="M838.52,514.96c9.36-11.85,18.31-21.09,26.84-27.73c8.53-6.63,18.25-11.61,29.15-14.93
				c10.9-3.32,19.79-4.98,26.66-4.98c6.87,0,12.68,0.36,17.42,1.07v3.56c-14.7,0.95-27.5,4.86-38.39,11.73
				c-12.09,7.82-20.68,15.05-25.77,21.69c-5.1,6.64-9.13,11.91-12.09,15.82c-2.97,3.91-5.75,8.48-8.35,13.69
				c-4.5,8.06-8.3,15.52-11.38,22.4L749.83,760.6c-12.56,26.55-19.32,44.2-20.26,52.97h-3.2L613.67,579.3
				c-7.35-13.03-17.3-19.55-29.86-19.55h-2.84v-3.56H715.7v3.56h-3.2c-4.98,0-8.71,1.6-11.2,4.8c-2.49,3.2-3.73,6.22-3.73,9.06
				c0,2.84,0.47,5.69,1.42,8.53l50.84,121.94l63.99-146.82C820.93,540.91,829.16,526.81,838.52,514.96z"/>
			<path class="st0" d="M866.07,801.49c6.16,0,11.43-2.19,15.82-6.58c4.38-4.38,6.69-9.65,6.93-15.82V582.14
				c-0.24-7.58-3.44-13.63-9.6-18.13c-3.79-2.84-8.18-4.27-13.15-4.27h-4.62v-3.56h118.38c10.19,0,19.25-0.83,27.2-2.49
				c7.94-1.65,12.98-2.96,15.11-3.91v73.23h-3.56v-2.84c0-13.98-3.91-25-11.73-33.06c-7.82-8.05-18.72-12.32-32.71-12.8H961.7v99.18
				h49.41c11.38-0.23,20.62-3.97,27.73-11.2c7.11-7.23,10.66-16.53,10.66-27.91v-1.42h3.56v98.83h-3.56v-1.78
				c0-11.14-3.56-20.32-10.66-27.55c-7.11-7.23-16.24-10.96-27.37-11.2H961.7v95.63h65.06c17.3,0,32.58-5.69,45.86-17.06
				c13.27-11.38,22.63-27.13,28.08-47.28h3.56l-13.51,82.48h-229.3v-3.56H866.07z"/>
			<path class="st0" d="M1509.87,853.03c-14.46,9-30.1,13.51-46.93,13.51c-14.7,0-29.98-4.39-45.86-13.15
				c-16.35-8.77-32.35-21.21-47.99-37.33l-156.06-161.4V779.8c0,6.17,2.13,11.32,6.4,15.46c4.27,4.15,9.36,6.22,15.29,6.22h6.75
				v3.56h-130.11v-3.56h6.75c5.92,0,11.02-2.07,15.29-6.22c4.27-4.14,6.4-9.3,6.4-15.46V578.59c-36.49-38.87-68.49-58.3-95.98-58.3
				c-6.87,0-13.51,1.19-19.91,3.56l-1.78-3.2c13.28-9.48,27.61-14.22,43.02-14.22c10.19,0,20.56,1.96,31.11,5.87
				c10.54,3.91,19.73,8.35,27.55,13.33c14.69,9.72,27.73,20.39,39.1,31.99l146.11,151.09V581.43c-0.24-6.16-2.49-11.31-6.75-15.46
				c-4.27-4.14-9.37-6.22-15.29-6.22h-6.75v-3.56h130.11v3.56h-6.4c-5.93,0-11.02,2.08-15.29,6.22c-4.27,4.15-6.52,9.19-6.75,15.11
				v202.99l6.4,6.75c11.14,11.85,17.71,18.72,19.73,20.62c2.01,1.89,6.1,5.63,12.27,11.2c6.16,5.57,11.14,9.48,14.93,11.73
				c3.79,2.25,9,5.21,15.64,8.89c6.63,3.67,12.68,5.98,18.13,6.93c6.16,1.42,12.68,2.13,19.55,2.13c6.87,0,13.51-0.95,19.91-2.84
				L1509.87,853.03z"/>
			<path class="st0" d="M1416.02,647.2c-14.45-12.8-21.69-26.54-21.69-41.24c0-13.74,5.57-25.36,16.71-34.84
				c11.85-10.19,27.25-15.29,46.21-15.29h181.66c7.34,0,15.29-0.71,23.82-2.13c8.53-1.42,14.58-2.84,18.13-4.27v73.23l-3.56-0.36
				v-2.49c0-19.2-7.11-32.71-21.33-40.53c-6.88-3.56-15.05-5.45-24.53-5.69h-34.84v205.83c0.23,6.17,2.54,11.38,6.93,15.64
				c4.38,4.27,9.65,6.4,15.82,6.4h4.62v3.56h-127.62v-3.56h4.62c6.16,0,11.43-2.13,15.82-6.4c4.38-4.27,6.69-9.36,6.93-15.29V573.61
				h-66.48c-13.28,0-24.3,3.2-33.06,9.6c-10.19,7.35-15.29,16.53-15.29,27.55c0,11.02,3.68,22.57,11.02,34.66L1416.02,647.2z"/>
			<path class="st0" d="M2014.33,476.92c3.32,0,6.63,0.24,9.95,0.71v3.56c-21.33,2.61-37.45,12.68-48.35,30.22
				c-10.9,17.54-16.35,40.77-16.35,69.68v132.6c-0.48,31.28-10.49,55.16-30.04,71.63c-19.55,16.47-48.53,24.71-86.92,24.71
				c-38.39,0-68.61-8.53-90.65-25.6c-22.04-17.06-33.06-39.82-33.06-68.26c0-0.71,0-1.42,0-2.13V577.17c0-4.98-1.84-9.12-5.51-12.44
				c-3.68-3.32-8.12-4.98-13.33-4.98h-5.69v-3.56h121.94v3.56h-5.69c-7.35,0-12.8,2.84-16.35,8.53c-1.42,2.61-2.25,5.33-2.49,8.18
				v136.16c0,24.65,6.22,44.03,18.66,58.12c12.44,14.1,28.97,21.15,49.59,21.15c0.23,0,0.41,0,0.53,0c0.12,0,0.29,0,0.53,0
				c19.67,0,35.84-6.58,48.53-19.73c12.68-13.15,19.02-31.46,19.02-54.92V581.08c0-29.38,8.53-54.62,25.6-75.72
				c8.05-9.71,17.47-16.89,28.26-21.51C1993.29,479.23,2003.89,476.92,2014.33,476.92z"/>
			<path class="st0" d="M1940.73,539.84c16.83-9,33.36-13.51,49.59-13.51s31.11,3.44,44.61,10.31
				c27.02,13.99,50.13,36.86,69.32,68.61l63.63,103.45l105.58-157.49h3.2l40.17,207.97c8.06,42.66,20.03,72.28,35.91,88.87
				c12.56,13.03,28.56,19.55,47.99,19.55c1.65,0,3.43,0,5.33,0v3.56c-14.7,6.16-29.98,9.24-45.86,9.24
				c-31.52,0-58.9-12.33-82.12-36.97c-19.44-20.39-33.06-49.18-40.88-86.39l-16.35-75.01l-60.79,90.3
				c-4.03,5.69-7.59,12.56-10.66,20.62c-3.08,8.06-4.51,14.93-4.27,20.62h-3.2l-86.39-147.89l-17.77,119.45v1.42
				c0,3.79,1.36,7.29,4.09,10.49c2.72,3.2,5.98,4.8,9.78,4.8h5.33v3.2h-77.85v-3.56h5.69c6.4,0,12.03-1.96,16.89-5.87
				c4.86-3.91,7.88-9.18,9.07-15.82l24.53-152.51c-12.09-21.09-25.48-39.82-40.17-56.17c-16.82-18.49-33.65-27.73-50.48-27.73
				c-0.94,0-1.89,0-2.84,0L1940.73,539.84z"/>
		</g>
	</g>
</g>
</svg>
